<svg viewBox="0 0 14 14" xmlns="http://www.w3.org/2000/svg"><path d="m6.99746829 5.206376.0235081-.0174163 4.8423562 3.6154833h-9.73174422l4.84237182-3.6154833z" fill="#f7f5ed"/><path d="m4.56374 10.5595 4.87252-3.5375-.0265-.019h-.003l-.009-.01c-.45053-.3173-.89911-.6396-1.34661-.9653-.00005-.0001-.00008-.0001-.00012-.0001-1.16431-.8476-2.32142-1.7188-3.48723-2.587v7.1135l.00011-.0001z" fill="#f7f5ed"/><path d="m11.86331462 11.342143h.34182027c.43471944 0 .79038762-.35566584.79038762-.79038762v-7.20071847c0-.43471944-.35567521-.79038762-.79038762-.79038762h-.34182027v8.7814859zm-9.73174422.0668536h-.34182027c-.43471007 0-.79038762-.35566584-.79038762-.79038762v-7.26754864c0-.43471944.35566584-.79038762.79038762-.79038762h.34182027v8.8483395z" fill="#e75a4d"/><path d="m6.99745032 6.15873972.0235081.01742411 4.8423562-3.61551454h-9.73174422l4.84237182 3.61551454z" fill="#f7f5ed"/><path d="m7.00268302 7.8725505 4.86067846 3.46960812v-7.04440132c-.80412541.59883956-1.60412714 1.19911616-2.40519884 1.79209822-.75827446.56129689-1.51750643 1.11605681-2.28213667 1.65685245l-.00021868.0001562-.1731149.12568243z" fill="#b7b6ad"/><path d="m2.14986923 11.4342229-.03659766-.0505307 4.89550325-3.5571426.0365508.0505307z" fill="#b7b6ad"/><path d="m7.00268302 7.8725505c-1.84544833-1.09928093-4.19974159-3.08619179-6.00328927-4.41368092l.53361435-.83645881.58299228-.04767177.01559853-.01407643 4.84236439 3.61550673.02351278-.0174249.02351279.0174249 4.842364-3.61550673.01559892.01407643.5829923.04767177.53361434.83645881c-1.95064903 1.43575916-3.98673164 3.09721951-5.99287853 4.41368092z" fill="#e75a4d"/><path d="m0-2034h2048v2048h-2048z" fill="none"/></svg>